<?xml version="1.0" encoding="utf-8"?>
<!-- Generator: Adobe Illustrator 25.2.1, SVG Export Plug-In . SVG Version: 6.00 Build 0)  -->
<svg version="1.1" id="Layer_1" xmlns="http://www.w3.org/2000/svg" xmlns:xlink="http://www.w3.org/1999/xlink" x="0px" y="0px"
	 viewBox="0 0 2493 1011" style="enable-background:new 0 0 2493 1011;" xml:space="preserve">
<style type="text/css">
	.st0{fill-rule:evenodd;clip-rule:evenodd;fill:#FFFFFF;stroke:#141C3A;stroke-width:8;}
	.st1{fill-rule:evenodd;clip-rule:evenodd;fill:#6F75F2;stroke:#6F75F2;stroke-width:8;}
	.st2{fill:none;stroke:#141C3A;stroke-width:8;}
	.st3{fill-rule:evenodd;clip-rule:evenodd;fill:#141C3A;stroke:#141C3A;stroke-width:8;}
	.st4{fill-rule:evenodd;clip-rule:evenodd;fill:#141C3A;}
	.st5{fill-rule:evenodd;clip-rule:evenodd;fill:#6E07F3;stroke:#6E07F3;stroke-width:8;}
	.st6{fill-rule:evenodd;clip-rule:evenodd;fill:#FFFFFF;}
	.st7{fill-rule:evenodd;clip-rule:evenodd;fill:#5BE9B9;stroke:#141C3A;stroke-width:8;}
	.st8{fill-rule:evenodd;clip-rule:evenodd;fill:#1A9FB9;}
	.st9{fill-rule:evenodd;clip-rule:evenodd;fill:#293347;}
	.st10{fill-rule:evenodd;clip-rule:evenodd;fill:#6E07F3;}
	.st11{fill-rule:evenodd;clip-rule:evenodd;fill:#5BE9B9;}
	.st12{opacity:0.54;fill-rule:evenodd;clip-rule:evenodd;fill:#535B6B;enable-background:new    ;}
	.st13{fill:none;stroke:#6E07F3;stroke-width:9;}
	.st14{fill-rule:evenodd;clip-rule:evenodd;fill:#FFFFFE;stroke:#5BE9B9;stroke-width:8;}
	.st15{fill:none;stroke:#141C3A;stroke-width:8;stroke-linecap:square;}
	.st16{fill-rule:evenodd;clip-rule:evenodd;fill:#6F75F2;}
	.st17{fill-rule:evenodd;clip-rule:evenodd;fill:#FFFFFE;stroke:#141C3A;stroke-width:8;}
	.st18{fill-rule:evenodd;clip-rule:evenodd;fill:#FFFFFF;stroke:#141C3A;stroke-width:8.4;}
	.st19{fill-rule:evenodd;clip-rule:evenodd;fill:#6E07F3;stroke:#141C3A;stroke-width:8;}
	.st20{fill:#141C3A;}
</style>
<script  id="youtube-hd-fjdmkanbdloodhegphphhklnjfngoffa" xmlns="">var ythdlog = () =&gt; {};;var ythderror = () =&gt; {};
	</script>
<g id="Assets">
	<g id="Group-28">
		<path id="Case" class="st0" d="M1486,126H512c-7.7,0-14.7,3.1-19.8,8.2c-5.1,5.1-8.2,12.1-8.2,19.8v667c0,7.7,3.1,14.7,8.2,19.8
			c5.1,5.1,12.1,8.2,19.8,8.2h974c7.7,0,14.7-3.1,19.8-8.2c5.1-5.1,8.2-12.1,8.2-19.8V154c0-7.7-3.1-14.7-8.2-19.8
			C1500.7,129.1,1493.7,126,1486,126z"/>
		<path id="Case_1_" class="st1" d="M1438,188H559c-3.3,0-6.3,1.3-8.5,3.5c-2.2,2.2-3.5,5.2-3.5,8.5v497c0,3.3,1.3,6.3,3.5,8.5
			c2.2,2.2,5.2,3.5,8.5,3.5h879c3.3,0,6.3-1.3,8.5-3.5c2.2-2.2,3.5-5.2,3.5-8.5V200c0-3.3-1.3-6.3-3.5-8.5
			C1444.3,189.3,1441.3,188,1438,188z"/>
		<path id="Case_2_" class="st0" d="M1073.3,849H925.7l-10,129h167.6L1073.3,849z"/>
		<path id="Keyboard" class="st0" d="M1144,1007H855c-0.3,0-0.5-0.1-0.7-0.3c-0.2-0.2-0.3-0.4-0.3-0.7v-13.5c0-4,1.6-7.6,4.2-10.3
			c2.6-2.6,6.3-4.2,10.3-4.2h262c4,0,7.6,1.6,10.3,4.2c2.6,2.6,4.2,6.2,4.2,10.3v13.5c0,0.3-0.1,0.5-0.3,0.7
			C1144.5,1006.9,1144.3,1007,1144,1007z"/>
		<circle id="Oval-6" class="st2" cx="999.5" cy="784.5" r="18.5"/>
		<path id="Case_3_" class="st0" d="M413,618h150c13.3,0,24,10.7,24,24v341c0,13.3-10.7,24-24,24H413c-13.3,0-24-10.7-24-24V642
			C389,628.7,399.7,618,413,618z"/>
		<path id="Case_4_" class="st3" d="M587,662H389v287.3h198V662z"/>
		<path id="Rectangle-11" class="st4" d="M445,636h87c2.2,0,4,1.8,4,4l0,0c0,2.2-1.8,4-4,4h-87c-2.2,0-4-1.8-4-4l0,0
			C441,637.8,442.8,636,445,636z"/>
		<path id="Rectangle-11_1_" class="st4" d="M488.4,966L488.4,966c6.3,0,11.4,5.1,11.4,11.4v0c0,6.3-5.1,11.4-11.4,11.4l0,0
			c-6.3,0-11.4-5.1-11.4-11.4v0C477,971.1,482.1,966,488.4,966z"/>
		<circle id="Oval-6_1_" class="st5" cx="445" cy="805" r="15"/>
		<g id="Group-73" transform="translate(480.000000, 779.000000)">
			<path id="Rectangle-11_2_" class="st6" d="M4,0h62c2.2,0,4,1.8,4,4l0,0c0,2.2-1.8,4-4,4H4C1.8,8,0,6.2,0,4l0,0C0,1.8,1.8,0,4,0z"
				/>
			<path id="Rectangle-11_3_" class="st6" d="M4,22h42c2.2,0,4,1.8,4,4l0,0c0,2.2-1.8,4-4,4H4c-2.2,0-4-1.8-4-4l0,0
				C0,23.8,1.8,22,4,22z"/>
			<path id="Rectangle-11_4_" class="st6" d="M4,44h22c2.2,0,4,1.8,4,4l0,0c0,2.2-1.8,4-4,4H4c-2.2,0-4-1.8-4-4l0,0
				C0,45.8,1.8,44,4,44z"/>
		</g>
		<circle id="Oval-7" class="st7" cx="287.5" cy="653.5" r="153.5"/>
		<path id="Case_5_" class="st0" d="M1940,468h-684c-7.7,0-14.7,3.1-19.8,8.2c-5.1,5.1-8.2,12.1-8.2,19.8v441
			c0,7.7,3.1,14.7,8.2,19.8c5.1,5.1,12.1,8.2,19.8,8.2h684c7.7,0,14.7-3.1,19.8-8.2c5.1-5.1,8.2-12.1,8.2-19.8V496
			c0-7.7-3.1-14.7-8.2-19.8C1954.7,471.1,1947.7,468,1940,468z"/>
		<path id="Keyboard_1_" class="st0" d="M2018,965h-840c-0.3,0-0.5,0.1-0.7,0.3c-0.2,0.2-0.3,0.4-0.3,0.7v20c0,5.8,2.4,11,6.2,14.8
			c3.8,3.8,9.1,6.2,14.9,6.2h800c5.8,0,11.1-2.4,14.9-6.2c3.8-3.8,6.2-9.1,6.2-14.8v-20c0-0.3-0.1-0.5-0.3-0.7
			C2018.5,965.1,2018.3,965,2018,965z"/>
		<path id="Notch" class="st0" d="M1653.3,965.4l-112,0c1.9,5.1,5.2,9.6,9.4,13c5.3,4.4,12.2,7,19.6,7h54c7.4,0,14.2-2.6,19.6-7
			C1648.1,975.1,1651.3,970.6,1653.3,965.4z"/>
		<path id="Screen" class="st8" d="M1265,511h665.4c4.4,0,8,3.6,8,8v395.8c0,4.4-3.6,8-8,8H1265c-4.4,0-8-3.6-8-8V519
			C1257,514.6,1260.6,511,1265,511z"/>
		<g id="Group-69" transform="translate(695.000000, 0.000000)">
			<circle id="Oval-3" class="st9" cx="282" cy="197" r="5"/>
			<path id="Case_6_" class="st3" d="M450,59H4v435c0,5.5,2.2,10.5,5.9,14.1c3.6,3.6,8.6,5.9,14.2,5.9h406c5.5,0,10.5-2.2,14.1-5.9
				c3.6-3.6,5.9-8.6,5.9-14.1V59z"/>
			<path id="Case_7_" class="st0" d="M430,4H24C18.5,4,13.5,6.2,9.9,9.9C6.2,13.5,4,18.5,4,24v27h446V24c0-5.5-2.2-10.5-5.9-14.1
				C440.5,6.2,435.5,4,430,4z"/>
			<circle id="Oval-5" class="st4" cx="39" cy="28" r="9"/>
			<circle id="Oval-5_1_" class="st10" cx="69" cy="28" r="9"/>
			<circle id="Oval-5_2_" class="st11" cx="99" cy="28" r="9"/>
			<g id="Group-72" transform="translate(52.000000, 143.000000)">
				<path id="Rectangle-11_5_" class="st12" d="M4,200h10c2.2,0,4,1.8,4,4l0,0c0,2.2-1.8,4-4,4H4c-2.2,0-4-1.8-4-4l0,0
					C0,201.8,1.8,200,4,200z"/>
				<path id="Rectangle-11_6_" class="st12" d="M4,0h10c2.2,0,4,1.8,4,4l0,0c0,2.2-1.8,4-4,4H4C1.8,8,0,6.2,0,4l0,0C0,1.8,1.8,0,4,0
					z"/>
				<path id="Rectangle-11_7_" class="st10" d="M34,0h27c2.2,0,4,1.8,4,4s-1.8,4-4,4H34c-2.2,0-4-1.8-4-4S31.8,0,34,0z"/>
				<path id="Rectangle-11_8_" class="st11" d="M79,0h27c2.2,0,4,1.8,4,4s-1.8,4-4,4H79c-2.2,0-4-1.8-4-4S76.8,0,79,0z"/>
				<path id="Rectangle-11_9_" class="st10" d="M124,0h50c2.2,0,4,1.8,4,4s-1.8,4-4,4h-50c-2.2,0-4-1.8-4-4S121.8,0,124,0z"/>
				<path id="Rectangle-11_10_" class="st10" d="M192,0h74c2.2,0,4,1.8,4,4s-1.8,4-4,4h-74c-2.2,0-4-1.8-4-4S189.8,0,192,0z"/>
				<path id="Rectangle-11_11_" class="st12" d="M4,40h10c2.2,0,4,1.8,4,4l0,0c0,2.2-1.8,4-4,4H4c-2.2,0-4-1.8-4-4l0,0
					C0,41.8,1.8,40,4,40z"/>
				<path id="Rectangle-11_12_" class="st12" d="M4,80h10c2.2,0,4,1.8,4,4l0,0c0,2.2-1.8,4-4,4H4c-2.2,0-4-1.8-4-4l0,0
					C0,81.8,1.8,80,4,80z"/>
				<path id="Rectangle-11_13_" class="st12" d="M4,120h10c2.2,0,4,1.8,4,4l0,0c0,2.2-1.8,4-4,4H4c-2.2,0-4-1.8-4-4l0,0
					C0,121.8,1.8,120,4,120z"/>
				<path id="Rectangle-11_14_" class="st12" d="M4,160h10c2.2,0,4,1.8,4,4l0,0c0,2.2-1.8,4-4,4H4c-2.2,0-4-1.8-4-4l0,0
					C0,161.8,1.8,160,4,160z"/>
				<path id="Rectangle-11_15_" class="st12" d="M4,240h10c2.2,0,4,1.8,4,4l0,0c0,2.2-1.8,4-4,4H4c-2.2,0-4-1.8-4-4l0,0
					C0,241.8,1.8,240,4,240z"/>
				<path id="Rectangle-11_16_" class="st12" d="M4,280h10c2.2,0,4,1.8,4,4l0,0c0,2.2-1.8,4-4,4H4c-2.2,0-4-1.8-4-4l0,0
					C0,281.8,1.8,280,4,280z"/>
				<path id="Rectangle-11_17_" class="st10" d="M34,40h62c2.2,0,4,1.8,4,4l0,0c0,2.2-1.8,4-4,4H34c-2.2,0-4-1.8-4-4l0,0
					C30,41.8,31.8,40,34,40z"/>
				<path id="Rectangle-11_18_" class="st11" d="M114,40h112c2.2,0,4,1.8,4,4l0,0c0,2.2-1.8,4-4,4H114c-2.2,0-4-1.8-4-4l0,0
					C110,41.8,111.8,40,114,40z"/>
				<path id="Rectangle-11_19_" class="st10" d="M244,40h42c2.2,0,4,1.8,4,4l0,0c0,2.2-1.8,4-4,4h-42c-2.2,0-4-1.8-4-4l0,0
					C240,41.8,241.8,40,244,40z"/>
				<path id="Rectangle-11_20_" class="st11" d="M34,80h42c2.2,0,4,1.8,4,4l0,0c0,2.2-1.8,4-4,4H34c-2.2,0-4-1.8-4-4l0,0
					C30,81.8,31.8,80,34,80z"/>
				<path id="Rectangle-11_21_" class="st10" d="M94,80h42c2.2,0,4,1.8,4,4l0,0c0,2.2-1.8,4-4,4H94c-2.2,0-4-1.8-4-4l0,0
					C90,81.8,91.8,80,94,80z"/>
				<path id="Rectangle-11_22_" class="st10" d="M154,80h22c2.2,0,4,1.8,4,4l0,0c0,2.2-1.8,4-4,4h-22c-2.2,0-4-1.8-4-4l0,0
					C150,81.8,151.8,80,154,80z"/>
				<path id="Rectangle-11_23_" class="st10" d="M34,120h92c2.2,0,4,1.8,4,4l0,0c0,2.2-1.8,4-4,4H34c-2.2,0-4-1.8-4-4l0,0
					C30,121.8,31.8,120,34,120z"/>
				<path id="Rectangle-11_24_" class="st10" d="M144,120h62c2.2,0,4,1.8,4,4l0,0c0,2.2-1.8,4-4,4h-62c-2.2,0-4-1.8-4-4l0,0
					C140,121.8,141.8,120,144,120z"/>
				<path id="Rectangle-11_25_" class="st10" d="M34,160h92c2.2,0,4,1.8,4,4l0,0c0,2.2-1.8,4-4,4H34c-2.2,0-4-1.8-4-4l0,0
					C30,161.8,31.8,160,34,160z"/>
				<path id="Rectangle-11_26_" class="st11" d="M144,160h122c2.2,0,4,1.8,4,4l0,0c0,2.2-1.8,4-4,4H144c-2.2,0-4-1.8-4-4l0,0
					C140,161.8,141.8,160,144,160z"/>
				<path id="Rectangle-11_27_" class="st10" d="M34,200h62c2.2,0,4,1.8,4,4l0,0c0,2.2-1.8,4-4,4H34c-2.2,0-4-1.8-4-4l0,0
					C30,201.8,31.8,200,34,200z"/>
				<path id="Rectangle-11_28_" class="st11" d="M114,200h62c2.2,0,4,1.8,4,4l0,0c0,2.2-1.8,4-4,4h-62c-2.2,0-4-1.8-4-4l0,0
					C110,201.8,111.8,200,114,200z"/>
				<path id="Rectangle-11_29_" class="st10" d="M194,200h32c2.2,0,4,1.8,4,4l0,0c0,2.2-1.8,4-4,4h-32c-2.2,0-4-1.8-4-4l0,0
					C190,201.8,191.8,200,194,200z"/>
				<path id="Rectangle-11_30_" class="st10" d="M34,240h122c2.2,0,4,1.8,4,4l0,0c0,2.2-1.8,4-4,4H34c-2.2,0-4-1.8-4-4l0,0
					C30,241.8,31.8,240,34,240z"/>
				<path id="Rectangle-11_31_" class="st11" d="M34,280h52c2.2,0,4,1.8,4,4l0,0c0,2.2-1.8,4-4,4H34c-2.2,0-4-1.8-4-4l0,0
					C30,281.8,31.8,280,34,280z"/>
			</g>
		</g>
		<g id="Group-68" transform="translate(1598.000000, 319.000000)">
			<path id="Case_8_" class="st0" d="M544,46H-4v390c0,7.7,3.1,14.7,8.2,19.8c5.1,5.1,12.1,8.2,19.8,8.2h492
				c7.7,0,14.7-3.1,19.8-8.2c5.1-5.1,8.2-12.1,8.2-19.8V46z"/>
			<path id="Case_9_" class="st3" d="M516-4H24C16.3-4,9.3-0.9,4.2,4.2C-0.9,9.3-4,16.3-4,24v30h548V24c0-7.7-3.1-14.7-8.2-19.8
				C530.7-0.9,523.7-4,516-4z"/>
			<circle id="Oval-5_3_" class="st6" cx="39" cy="25" r="9"/>
			<circle id="Oval-5_4_" class="st10" cx="69" cy="25" r="9"/>
			<circle id="Oval-5_5_" class="st11" cx="99" cy="25" r="9"/>
			<g id="Group-61" transform="translate(219.000000, 139.000000)">
				<circle id="Oval-6_2_" class="st13" cx="116" cy="116" r="100"/>
				<path id="Rectangle-12" class="st14" d="M129,4h-24v24h24V4z"/>
				<path id="Rectangle-12_1_" class="st14" d="M128,204h-24v24h24V204z"/>
				<path id="Rectangle-12_2_" class="st14" d="M28,105H4v24h24V105z"/>
				<line id="Line" class="st15" x1="216" y1="26" x2="216" y2="101"/>
				<line id="Line_1_" class="st15" x1="216" y1="131" x2="216" y2="206"/>
				<circle id="Oval-5_6_" class="st4" cx="216" cy="23" r="12"/>
				<circle id="Oval-5_7_" class="st4" cx="216" cy="213" r="12"/>
				<path id="Rectangle-12_3_" class="st14" d="M227,105h-24v24h24V105z"/>
			</g>
			<g id="Group-60" transform="translate(90.000000, 130.000000)">
				<path id="Rectangle-15" class="st4" d="M12,0h46c6.6,0,12,5.4,12,12v46c0,6.6-5.4,12-12,12H12C5.4,70,0,64.6,0,58V12
					C0,5.4,5.4,0,12,0z"/>
				<path id="Rectangle-15_1_" class="st11" d="M12,90h46c6.6,0,12,5.4,12,12v46c0,6.6-5.4,12-12,12H12c-6.6,0-12-5.4-12-12v-46
					C0,95.4,5.4,90,12,90z"/>
				<path id="Rectangle-15_2_" class="st16" d="M12,180h46c6.6,0,12,5.4,12,12v46c0,6.6-5.4,12-12,12H12c-6.6,0-12-5.4-12-12v-46
					C0,185.4,5.4,180,12,180z"/>
			</g>
		</g>
		<g id="Group-65" transform="translate(2253.000000, 800.000000)">
			<g id="Group-64" transform="translate(116.000000, 51.000000)">
				<circle id="Oval-8" class="st0" cx="60" cy="60" r="60"/>
				<circle id="Oval-8_1_" class="st0" cx="60" cy="60" r="35"/>
			</g>
			<circle id="Oval-8_2_" class="st17" cx="96" cy="20" r="20"/>
			<path id="Rectangle-16" class="st0" d="M177.9,15H8c-1.1,0-2.1,0.4-2.8,1.2C4.4,16.9,4,17.9,4,19v168c0,5.5,2.2,10.5,5.9,14.1
				S18.5,207,24,207h137.9c5.5,0,10.5-2.2,14.1-5.9c3.6-3.6,5.9-8.6,5.9-14.1V19c0-1.1-0.4-2.1-1.2-2.8C180,15.4,179,15,177.9,15z"
				/>
			<path id="Rectangle-16_1_" class="st7" d="M133,69H97c-2.2,0-4.2,0.9-5.7,2.3S89,74.8,89,77v48c0,2.2,0.9,4.2,2.3,5.7
				c1.4,1.4,3.4,2.3,5.7,2.3h36c2.2,0,4.2-0.9,5.7-2.3c1.4-1.4,2.3-3.4,2.3-5.7V77c0-2.2-0.9-4.2-2.3-5.7
				C137.2,69.9,135.2,69,133,69z"/>
			<line id="Line-2" class="st15" x1="114.5" y1="16.5" x2="114.5" y2="62"/>
		</g>
		<g id="Group-78" transform="translate(2080.000000, 948.000000)">
			<path id="Oval-8_3_" class="st18" d="M63,4.2c-16.2,0-30.9,6.6-41.6,17.2c-9.7,9.7-16,22.8-17.1,37.4h117.3
				c-1-14.6-7.4-27.7-17.1-37.4C93.9,10.8,79.2,4.2,63,4.2z"/>
			<path id="Rectangle-11_32_" class="st4" d="M63,5L63,5c2.2,0,4,1.8,4,4v5c0,2.2-1.8,4-4,4l0,0c-2.2,0-4-1.8-4-4V9
				C59,6.8,60.8,5,63,5z"/>
		</g>
		<g id="Group-27" transform="translate(0.000000, 885.000000)">
			<path id="Rectangle-17" class="st19" d="M305,4H63c-16.3,0-31,6.6-41.7,17.3S4,46.7,4,63s6.6,31,17.3,41.7S46.7,122,63,122h242
				c1.7,0,3.2-0.7,4.2-1.8s1.8-2.6,1.8-4.2v-9.3c0-2.1-0.8-4-2.1-5.5s-3.2-2.4-5.3-2.5c-13.8-1-24.1-4.5-31-10.2
				c-7.3-6-11-14.5-11-25.5c0-11.1,3.8-19.6,11.1-25.8c6.9-5.8,17.3-9.5,31.3-10.8c2-0.2,3.8-1.2,5-2.6c1.3-1.4,2-3.3,2-5.3V10
				c0-1.7-0.7-3.2-1.8-4.2S306.7,4,305,4z"/>
			<path id="Rectangle-19" class="st0" d="M292.8,27H62c-9.9,0-18.9,4-25.5,10.5S26,53.1,26,63s4,18.9,10.5,25.5
				C43.1,95,52.1,99,62,99c108.9,0,186.3,0.2,232.3,0.6l0,0c-8-2.2-17.3-5.3-23.8-12c-5.3-5.4-9-13.1-9-24.6
				c0-11.6,3.8-19.4,9.1-24.8C276.7,32.1,285.2,29,292.8,27z"/>
			<path id="Rectangle-18" class="st4" d="M57.9,72h202.1c2.2,0,3.9,1.8,3.9,4s-1.8,4-3.9,4H57.9c-2.2,0-3.9-1.8-3.9-4
				S55.8,72,57.9,72z"/>
			<path id="Rectangle-18_1_" class="st4" d="M57.9,46h202.1c2.2,0,3.9,1.8,3.9,4s-1.8,4-3.9,4H57.9c-2.2,0-3.9-1.8-3.9-4
				S55.8,46,57.9,46z"/>
		</g>
		<g id="Group-94" transform="translate(199.000000, 589.000000)">
			<path id="Shape" class="st20" d="M51.2,100.4c-4.9-4.4-9.8-8.7-14.7-13.1C28.6,80.3,20.8,73.4,13,66.4c-1.8-1.6-3.6-3.2-5.4-4.8
				c0,2.1,0,4.2,0,6.3c4.9-4.4,9.8-8.7,14.7-13.1C30.2,47.9,38,40.9,45.8,34c1.8-1.6,3.6-3.2,5.4-4.8c1.7-1.6,1.7-4.7,0-6.3
				c-1.9-1.7-4.5-1.7-6.3,0C39.9,27.3,35,31.7,30.1,36C22.3,43,14.5,49.9,6.6,56.9c-1.8,1.6-3.6,3.2-5.4,4.8c-1.7,1.5-1.7,4.8,0,6.3
				C6.2,72.3,11.1,76.7,16,81c7.8,6.9,15.6,13.9,23.4,20.9c1.8,1.6,3.6,3.2,5.4,4.8c1.7,1.6,4.6,1.8,6.3,0
				C52.7,105,53,102,51.2,100.4L51.2,100.4z"/>
			<path id="Shape_1_" class="st20" d="M125.9,29.2c4.9,4.4,9.8,8.7,14.7,13.1c7.8,6.9,15.6,13.9,23.4,20.9c1.8,1.6,3.6,3.2,5.4,4.8
				c0-2.1,0-4.2,0-6.3c-4.9,4.4-9.8,8.7-14.7,13.1c-7.8,6.9-15.6,13.9-23.4,20.9c-1.8,1.6-3.6,3.2-5.4,4.8c-1.7,1.6-1.7,4.7,0,6.3
				c1.9,1.7,4.5,1.7,6.3,0c4.9-4.4,9.8-8.7,14.7-13.1c7.8-6.9,15.6-13.9,23.4-20.9c1.8-1.6,3.6-3.2,5.4-4.8c1.7-1.5,1.7-4.8,0-6.3
				c-4.9-4.4-9.8-8.7-14.7-13.1c-7.8-6.9-15.6-13.9-23.4-20.9c-1.8-1.6-3.6-3.2-5.4-4.8c-1.7-1.6-4.6-1.8-6.3,0
				C124.3,24.6,124,27.6,125.9,29.2L125.9,29.2z"/>
			<path id="Shape_2_" class="st20" d="M72.5,126.6c1.3-4,2.7-8,4-12c3.2-9.6,6.4-19.3,9.6-28.9C90,74,93.9,62.4,97.7,50.8
				c3.3-10,6.7-20.1,10-30.1c1.6-4.9,3.4-9.7,4.9-14.7c0-0.1,0-0.1,0.1-0.2c0.7-2.2-0.9-5-3.1-5.5c-2.5-0.6-4.7,0.7-5.5,3.1
				c-1.3,4-2.7,8-4,12c-3.2,9.6-6.4,19.3-9.6,28.9C86.6,56,82.7,67.6,78.8,79.2c-3.3,10-6.7,20.1-10,30.1c-1.6,4.9-3.4,9.7-4.9,14.6
				c0,0.1,0,0.1-0.1,0.2c-0.7,2.2,0.9,5,3.1,5.5C69.5,130.2,71.8,128.9,72.5,126.6L72.5,126.6z"/>
		</g>
	</g>
</g>
</svg>
