<svg id="visual" viewBox="0 0 900 600" width="900" height="600" xmlns="http://www.w3.org/2000/svg" xmlns:xlink="http://www.w3.org/1999/xlink" version="1.1"><rect x="0" y="0" width="900" height="600" fill="#ffffff"></rect><path d="M0 88L13.7 79C27.3 70 54.7 52 82 50.5C109.3 49 136.7 64 163.8 66C191 68 218 57 245.2 58C272.3 59 299.7 72 327 76.3C354.3 80.7 381.7 76.3 409 68.2C436.3 60 463.7 48 491 41.3C518.3 34.7 545.7 33.3 573 36.5C600.3 39.7 627.7 47.3 654.8 46.3C682 45.3 709 35.7 736.2 37.3C763.3 39 790.7 52 818 60.5C845.3 69 872.7 73 886.3 75L900 77L900 0L886.3 0C872.7 0 845.3 0 818 0C790.7 0 763.3 0 736.2 0C709 0 682 0 654.8 0C627.7 0 600.3 0 573 0C545.7 0 518.3 0 491 0C463.7 0 436.3 0 409 0C381.7 0 354.3 0 327 0C299.7 0 272.3 0 245.2 0C218 0 191 0 163.8 0C136.7 0 109.3 0 82 0C54.7 0 27.3 0 13.7 0L0 0Z" fill="#101010" stroke-linecap="round" stroke-linejoin="miter"></path></svg>